<svg width="171" height="48" viewBox="0 0 171 48" fill="none" xmlns="http://www.w3.org/2000/svg">
<path d="M23.056 27.008C23.056 25.984 22.9067 25.024 22.608 24.128C22.3307 23.2107 21.904 22.4107 21.328 21.728C20.752 21.0453 20.016 20.512 19.12 20.128C18.2453 19.7227 17.2213 19.52 16.048 19.52C13.7653 19.52 11.9627 20.1707 10.64 21.472C9.33867 22.7733 8.50667 24.6187 8.144 27.008H23.056ZM7.984 31.776C8.112 33.4613 8.41067 34.9227 8.88 36.16C9.34933 37.376 9.968 38.3893 10.736 39.2C11.504 39.9893 12.4107 40.5867 13.456 40.992C14.5227 41.376 15.696 41.568 16.976 41.568C18.256 41.568 19.3547 41.4187 20.272 41.12C21.2107 40.8213 22.0213 40.4907 22.704 40.128C23.408 39.7653 24.016 39.4347 24.528 39.136C25.0613 38.8373 25.5733 38.688 26.064 38.688C26.7253 38.688 27.216 38.9333 27.536 39.424L29.808 42.304C28.9333 43.328 27.952 44.192 26.864 44.896C25.776 45.5787 24.6347 46.1333 23.44 46.56C22.2667 46.9653 21.0613 47.2533 19.824 47.424C18.608 47.5947 17.424 47.68 16.272 47.68C13.9893 47.68 11.8667 47.3067 9.904 46.56C7.94133 45.792 6.23467 44.672 4.784 43.2C3.33333 41.7067 2.192 39.872 1.36 37.696C0.528 35.4987 0.112 32.96 0.112 30.08C0.112 27.84 0.474667 25.7387 1.2 23.776C1.92533 21.792 2.96 20.0747 4.304 18.624C5.66933 17.152 7.32267 15.9893 9.264 15.136C11.2267 14.2827 13.4347 13.856 15.888 13.856C17.9573 13.856 19.8667 14.1867 21.616 14.848C23.3653 15.5093 24.8693 16.48 26.128 17.76C27.3867 19.0187 28.368 20.576 29.072 22.432C29.7973 24.2667 30.16 26.368 30.16 28.736C30.16 29.9307 30.032 30.7413 29.776 31.168C29.52 31.5733 29.0293 31.776 28.304 31.776H7.984Z" fill="#3D4C8D"/>
<path d="M55.5795 8.00001H41.6275V47.2H33.0195V8.00001H19.0675V0.928009H55.5795V8.00001ZM82.737 14.368V47.2H77.905C76.8597 47.2 76.1983 46.72 75.921 45.76L75.377 43.136C74.033 44.5013 72.5503 45.6107 70.929 46.464C69.3077 47.296 67.3983 47.712 65.201 47.712C63.409 47.712 61.8197 47.4133 60.433 46.816C59.0677 46.1973 57.9157 45.3333 56.977 44.224C56.0383 43.1147 55.3237 41.8027 54.833 40.288C54.3637 38.752 54.129 37.0667 54.129 35.232V14.368H62.033V35.232C62.033 37.2373 62.4917 38.7947 63.409 39.904C64.3477 40.992 65.745 41.536 67.601 41.536C68.9663 41.536 70.2463 41.2373 71.441 40.64C72.6357 40.0213 73.7663 39.1787 74.833 38.112V14.368H82.737ZM101.518 47.712C98.6593 47.712 96.462 46.912 94.926 45.312C93.4113 43.6907 92.654 41.4613 92.654 38.624V20.288H89.294C88.8673 20.288 88.5047 20.1493 88.206 19.872C87.9073 19.5947 87.758 19.1787 87.758 18.624V15.488L93.038 14.624L94.702 5.66401C94.8087 5.23734 95.0113 4.90668 95.31 4.67201C95.6087 4.43734 95.9927 4.32001 96.462 4.32001H100.558V14.656H109.326V20.288H100.558V38.08C100.558 39.104 100.803 39.904 101.294 40.48C101.806 41.056 102.499 41.344 103.374 41.344C103.865 41.344 104.27 41.2907 104.59 41.184C104.931 41.056 105.219 40.928 105.454 40.8C105.71 40.672 105.934 40.5547 106.126 40.448C106.318 40.32 106.51 40.256 106.702 40.256C106.937 40.256 107.129 40.32 107.278 40.448C107.427 40.5547 107.587 40.7253 107.758 40.96L110.126 44.8C108.974 45.76 107.651 46.4853 106.158 46.976C104.665 47.4667 103.118 47.712 101.518 47.712ZM128.664 13.856C131.096 13.856 133.304 14.2507 135.288 15.04C137.294 15.8293 139 16.9493 140.408 18.4C141.838 19.8507 142.936 21.6213 143.704 23.712C144.472 25.8027 144.856 28.1387 144.856 30.72C144.856 33.3227 144.472 35.6693 143.704 37.76C142.936 39.8507 141.838 41.632 140.408 43.104C139 44.576 137.294 45.7067 135.288 46.496C133.304 47.2853 131.096 47.68 128.664 47.68C126.211 47.68 123.982 47.2853 121.976 46.496C119.971 45.7067 118.254 44.576 116.824 43.104C115.416 41.632 114.318 39.8507 113.528 37.76C112.76 35.6693 112.376 33.3227 112.376 30.72C112.376 28.1387 112.76 25.8027 113.528 23.712C114.318 21.6213 115.416 19.8507 116.824 18.4C118.254 16.9493 119.971 15.8293 121.976 15.04C123.982 14.2507 126.211 13.856 128.664 13.856ZM128.664 41.6C131.395 41.6 133.411 40.6827 134.712 38.848C136.035 37.0133 136.696 34.3253 136.696 30.784C136.696 27.2427 136.035 24.544 134.712 22.688C133.411 20.832 131.395 19.904 128.664 19.904C125.891 19.904 123.832 20.8427 122.488 22.72C121.166 24.576 120.504 27.264 120.504 30.784C120.504 34.304 121.166 36.992 122.488 38.848C123.832 40.6827 125.891 41.6 128.664 41.6ZM158.342 20.064C159.366 18.1013 160.582 16.5653 161.99 15.456C163.398 14.3253 165.062 13.76 166.982 13.76C168.497 13.76 169.713 14.0907 170.63 14.752L170.118 20.672C170.012 21.056 169.852 21.3333 169.638 21.504C169.446 21.6533 169.18 21.728 168.838 21.728C168.518 21.728 168.038 21.6747 167.398 21.568C166.78 21.4613 166.172 21.408 165.574 21.408C164.7 21.408 163.921 21.536 163.238 21.792C162.556 22.048 161.937 22.4213 161.382 22.912C160.849 23.3813 160.369 23.9573 159.942 24.64C159.537 25.3227 159.153 26.1013 158.79 26.976V47.2H150.886V14.368H155.526C156.337 14.368 156.902 14.5173 157.222 14.816C157.542 15.0933 157.756 15.6053 157.862 16.352L158.342 20.064Z" fill="#DB5024"/>
</svg>
